<?xml version="1.0" encoding="UTF-8" standalone="no"?>
<!DOCTYPE svg PUBLIC "-//W3C//DTD SVG 1.1//EN" "http://www.w3.org/Graphics/SVG/1.1/DTD/svg11.dtd">
<svg width="100%" height="100%" viewBox="0 0 100 125" version="1.1" xmlns="http://www.w3.org/2000/svg" xmlns:xlink="http://www.w3.org/1999/xlink" xml:space="preserve" style="fill-rule:evenodd;clip-rule:evenodd;stroke-linejoin:round;stroke-miterlimit:1.41421;">
    <g transform="matrix(1,0,0,1,0,12)">
        <path d="M93.494,86.224L68.831,61.561C79.16,47.692 78.073,27.947 65.491,15.365C51.671,1.545 29.186,1.545 15.366,15.365C1.546,29.185 1.546,51.67 15.366,65.49C27.948,78.072 47.693,79.159 61.562,68.83L86.226,93.494C88.234,95.502 91.488,95.502 93.496,93.494C95.504,91.486 95.502,88.232 93.494,86.224ZM20.211,60.644C9.064,49.497 9.064,31.359 20.211,20.212C31.358,9.065 49.496,9.065 60.643,20.212C71.79,31.359 71.79,49.497 60.643,60.644C49.496,71.791 31.358,71.791 20.211,60.644Z" style="fill-rule:nonzero;"/>
    </g>
</svg>
